<?xml version="1.0" encoding="UTF-8"?>
<svg id="_Слой_1" data-name="Слой 1" xmlns="http://www.w3.org/2000/svg" viewBox="0 0 128 128">
  <defs>
    <style>
      .cls-1 {
        stroke-width: 0px;
      }
    </style>
  </defs>
  <path class="cls-1" d="m124.06,13.25c1.86,1.86,2.84,4.24,2.94,7.13v96.15c-.1,2.89-1.07,5.26-2.94,7.13-1.86,1.86-4.24,2.84-7.13,2.93H11.84c-2.89-.09-5.26-1.07-7.13-2.93-1.86-1.86-2.84-4.24-2.93-7.13V20.37c.09-2.89,1.07-5.26,2.93-7.13s4.24-2.84,7.13-2.94h16.77v-3.91c0-1.4.49-2.59,1.47-3.56s2.17-1.47,3.56-1.47,2.58.49,3.56,1.47,1.47,2.17,1.47,3.56v3.91h51.43v-3.91c0-1.4.49-2.59,1.47-3.56.98-.98,2.17-1.47,3.56-1.47s2.59.49,3.56,1.47c.98.98,1.47,2.17,1.47,3.56v3.91h16.77c2.89.09,5.26,1.07,7.13,2.94ZM11.84,36.03h105.1v-15.65h-16.77v2.8c0,1.4-.49,2.58-1.47,3.56-.98.98-2.17,1.47-3.56,1.47s-2.59-.49-3.56-1.47c-.98-.98-1.47-2.17-1.47-3.56v-2.8h-51.43v2.8c0,1.4-.49,2.58-1.47,3.56-.98.98-2.17,1.47-3.56,1.47s-2.59-.49-3.56-1.47c-.98-.98-1.47-2.17-1.47-3.56v-2.8H11.84v15.65Zm105.1,10.06H11.84v70.44h105.1V46.09Z"/>
  <path class="cls-1" d="m74.44,71.03l-5.86-5.86,5.86-5.86c1.16-1.16,1.16-3.03,0-4.19-1.16-1.16-3.03-1.16-4.19,0l-5.86,5.86-5.86-5.86c-1.16-1.16-3.03-1.16-4.19,0-1.16,1.16-1.16,3.03,0,4.19l5.86,5.86-5.86,5.86c-1.16,1.16-1.16,3.03,0,4.19s3.03,1.16,4.19,0l5.86-5.86,5.86,5.86c1.16,1.16,3.03,1.16,4.19,0s1.16-3.03,0-4.19Z"/>
  <path class="cls-1" d="m47.49,52.3c-1.31-1.31-3.44-1.31-4.76,0l-15.09,15.09-5.98-8.93c-1.03-1.54-3.12-1.96-4.67-.92h0c-1.54,1.03-1.96,3.12-.92,4.67l7.86,11.73c.16.42.41.82.75,1.16,1.31,1.31,3.44,1.31,4.76,0l18.05-18.05c1.31-1.31,1.31-3.44,0-4.76Z"/>
  <path class="cls-1" d="m112.52,52.3c-1.31-1.31-3.44-1.31-4.76,0l-15.09,15.09-5.98-8.93c-1.03-1.54-3.12-1.96-4.67-.92h0c-1.54,1.03-1.96,3.12-.92,4.67l7.86,11.73c.16.42.41.82.75,1.16,1.31,1.31,3.44,1.31,4.76,0l18.05-18.05c1.31-1.31,1.31-3.44,0-4.76Z"/>
  <path class="cls-1" d="m36.46,106.02l-5.86-5.86,5.86-5.86c1.16-1.16,1.16-3.03,0-4.19-1.16-1.16-3.03-1.16-4.19,0l-5.86,5.86-5.86-5.86c-1.16-1.16-3.03-1.16-4.19,0-1.16,1.16-1.16,3.03,0,4.19l5.86,5.86-5.86,5.86c-1.16,1.16-1.16,3.03,0,4.19s3.03,1.16,4.19,0l5.86-5.86,5.86,5.86c1.16,1.16,3.03,1.16,4.19,0s1.16-3.03,0-4.19Z"/>
  <path class="cls-1" d="m110.53,106.02l-5.86-5.86,5.86-5.86c1.16-1.16,1.16-3.03,0-4.19-1.16-1.16-3.03-1.16-4.19,0l-5.86,5.86-5.86-5.86c-1.16-1.16-3.03-1.16-4.19,0-1.16,1.16-1.16,3.03,0,4.19l5.86,5.86-5.86,5.86c-1.16,1.16-1.16,3.03,0,4.19s3.03,1.16,4.19,0l5.86-5.86,5.86,5.86c1.16,1.16,3.03,1.16,4.19,0s1.16-3.03,0-4.19Z"/>
  <path class="cls-1" d="m82.01,86.44c-1.31-1.31-3.44-1.31-4.76,0l-15.09,15.09-5.98-8.93c-1.03-1.54-3.12-1.96-4.67-.92h0c-1.54,1.03-1.96,3.12-.92,4.67l7.86,11.73c.16.42.41.82.75,1.16,1.31,1.31,3.44,1.31,4.76,0l18.05-18.05c1.31-1.31,1.31-3.44,0-4.76Z"/>
</svg>