<svg id="Слой_1" data-name="Слой 1" xmlns="http://www.w3.org/2000/svg" viewBox="0 0 1033.15 512.79"><defs><style>.cls-1,.cls-3{fill:#fff;}.cls-1,.cls-2{opacity:0.25;}</style></defs><path class="cls-1" d="M82.47,128.93a41.82,41.82,0,1,0,41.82,41.81A41.81,41.81,0,0,0,82.47,128.93Zm34.85,41.81a34.61,34.61,0,0,1-5.79,19.2l-4.15-4.16a1.73,1.73,0,0,1-.51-1.23V181.2a10.46,10.46,0,0,0-10.46-10.46H86a3.48,3.48,0,0,1-3.49-3.48v-1.74a1.75,1.75,0,0,1,1.75-1.75,8.71,8.71,0,0,0,8.71-8.71v-3.48a1.74,1.74,0,0,1,1.74-1.75h4.81a8.71,8.71,0,0,0,6.15-2.55L107,146A34.74,34.74,0,0,1,117.32,170.74ZM47.8,174.1l11,11a10.39,10.39,0,0,0,7.4,3.07h9.3A3.48,3.48,0,0,1,79,191.65v13.76A34.89,34.89,0,0,1,47.8,174.1ZM86,205.41V191.65A10.45,10.45,0,0,0,75.5,181.2H66.2a3.5,3.5,0,0,1-2.47-1L48.19,164.64a34.77,34.77,0,0,1,53.3-23.06l-.78.78a1.77,1.77,0,0,1-1.23.5H94.67A8.72,8.72,0,0,0,86,151.58v3.48a1.74,1.74,0,0,1-1.74,1.74,8.72,8.72,0,0,0-8.72,8.72v1.74A10.46,10.46,0,0,0,86,177.71H96.41a3.49,3.49,0,0,1,3.49,3.49v3.35a8.74,8.74,0,0,0,2.55,6.16l4.66,4.66A34.77,34.77,0,0,1,86,205.41Z" transform="translate(41.97 41.84)"/><g class="cls-2"><path class="cls-3" d="M462.85-23.81A41.79,41.79,0,1,0,504.63,18,41.79,41.79,0,0,0,462.85-23.81Zm0,76.61A34.82,34.82,0,1,1,497.67,18,34.83,34.83,0,0,1,462.85,52.8Z" transform="translate(41.97 41.84)"/><path class="cls-3" d="M462.85-2.91A3.48,3.48,0,0,0,459.36.57V15.63L447.63,23a3.49,3.49,0,0,0,3.69,5.92l13.38-8.35a3.52,3.52,0,0,0,1.63-3V.57A3.48,3.48,0,0,0,462.85-2.91Z" transform="translate(41.97 41.84)"/></g><path class="cls-1" d="M353.46,188.88a23.42,23.42,0,1,1,27.47-18.51A23.41,23.41,0,0,1,353.46,188.88Zm6.72-34.48a11.71,11.71,0,1,0,9.25,13.73A11.72,11.72,0,0,0,360.18,154.4Zm19.92,81.43a35.13,35.13,0,0,0-69-13.44,5.86,5.86,0,0,0,11.5,2.24,23.42,23.42,0,0,1,46,9,5.85,5.85,0,1,0,11.49,2.24Zm16.8-86.21a23.42,23.42,0,1,1,27.47-18.5A23.42,23.42,0,0,1,396.9,149.62Zm6.72-34.48a11.71,11.71,0,1,0,9.26,13.74A11.7,11.7,0,0,0,403.62,115.14Zm19.93,81.44a35.17,35.17,0,0,0-27.77-41.21,5.86,5.86,0,1,0-2.24,11.5,23.41,23.41,0,0,1,18.51,27.47,5.86,5.86,0,0,0,11.5,2.24Zm-95.62-60.4a23.42,23.42,0,1,1,27.47-18.5A23.42,23.42,0,0,1,327.93,136.18Zm6.72-34.48a11.71,11.71,0,1,0,9.26,13.74A11.71,11.71,0,0,0,334.65,101.7ZM297.1,171.94a23.42,23.42,0,0,1,27.47-18.51,5.86,5.86,0,0,0,2.24-11.5,35.16,35.16,0,0,0-41.2,27.77,5.85,5.85,0,0,0,11.49,2.24Z" transform="translate(41.97 41.84)"/><g class="cls-2"><path class="cls-3" d="M377,364.69l-38.42,3.65a19.32,19.32,0,0,0-17.39,21L326.7,447a15.44,15.44,0,0,0,16.83,13.91l42.26-4a19.32,19.32,0,0,0,17.39-21l-5.11-53.79A19.32,19.32,0,0,0,377,364.69Zm13.35,18.12,4,42.26-46.11,4.38-5.11-53.79,34.58-3.28A11.61,11.61,0,0,1,390.38,382.81Zm-54.82-5.72,5.05,53.09a15.1,15.1,0,0,0-7.48,2.89l-4.22-44.42A11.6,11.6,0,0,1,335.56,377.09Zm49.5,72.13-42.26,4a7.72,7.72,0,1,1-1.46-15.37l53.79-5.11.36,3.84A11.6,11.6,0,0,1,385.06,449.22Z" transform="translate(41.97 41.84)"/><path class="cls-3" d="M379.62,414.83a12.86,12.86,0,0,0,2.62-9.92,13.27,13.27,0,0,0-14.61-11l-5.92.56-.61-6.46L374,386.83a3.24,3.24,0,0,0-.61-6.46l-12.92,1.23a6.49,6.49,0,0,0-5.85,7.08l.92,9.69a3.24,3.24,0,0,0,3.54,2.92l9.14-.87c3.69-.35,7.08,2.1,7.58,5.44a6.5,6.5,0,0,1-5.8,7.43l-9.69.92a3.24,3.24,0,1,0,.61,6.46l9.69-.92A13.06,13.06,0,0,0,379.62,414.83Z" transform="translate(41.97 41.84)"/></g><path class="cls-1" d="M259.44,177l-38.81-18.49a27.49,27.49,0,0,0-27.8-.23L153.58,177l-.44.24a19.41,19.41,0,0,0,.44,34l10.83,5.16v25.79a26.34,26.34,0,0,0,18.52,25.15,88.38,88.38,0,0,0,47.17,0,26.37,26.37,0,0,0,18.52-25.15V216.34l10.52-5v43.41a5.27,5.27,0,1,0,10.53,0V191.56C269.71,185.38,264.83,179.67,259.44,177Zm-21.35,65.19A15.79,15.79,0,0,1,227,257.24a78,78,0,0,1-41.06,0,15.79,15.79,0,0,1-11-15.07v-20.8l17.46,8.31a27.67,27.67,0,0,0,14.24,3.89,26.19,26.19,0,0,0,13.56-3.65l17.9-8.55Zm16.84-40.48-39.69,18.95a17.34,17.34,0,0,1-17.84-.23l-38.84-18.48a8.92,8.92,0,0,1-.2-15.57l39.45-18.84a17.36,17.36,0,0,1,17.84.24l38.82,18.49a9.06,9.06,0,0,1,4.67,7.84,8.91,8.91,0,0,1-4.21,7.6Z" transform="translate(41.97 41.84)"/><path class="cls-1" d="M56.4,420.81l-44.37-9C1.83,409.75-4.58,398.89-2.3,387.56l11.64-57.5c2.3-11.33,12.43-18.84,22.64-16.79l44.36,9c10.21,2.08,16.62,12.94,14.34,24.27L79,404C76.74,415.35,66.61,422.86,56.4,420.81ZM30.31,321.48c-6.12-1.23-12.2,3.28-13.58,10.08L5.1,389.05c-1.38,6.81,2.47,13.33,8.6,14.57l44.36,9c6.13,1.24,12.21-3.27,13.59-10.07L83.28,345c1.38-6.81-2.47-13.33-8.6-14.57Zm30.33,40.34-29.58-6c-6.12-1.24-10-7.76-8.6-14.56S29.92,330,36.05,331.19l29.58,6c6.12,1.24,10,7.76,8.59,14.56S66.77,363.06,60.64,361.82ZM34.39,339.41a4.21,4.21,0,0,0-1.67,8.21l29.58,6A4.22,4.22,0,0,0,64,345.39ZM21.17,366.66a4.21,4.21,0,0,0-1.66,8.21,4.21,4.21,0,0,0,1.66-8.21Zm14.79,3a4.21,4.21,0,0,0-1.66,8.21A4.21,4.21,0,0,0,36,369.65Zm14.79,3a4.22,4.22,0,0,0-1.66,8.22,4.22,4.22,0,0,0,1.66-8.22Zm-32.9,10.44a4.22,4.22,0,0,0-1.66,8.22,4.22,4.22,0,0,0,1.66-8.22Zm14.79,3A4.21,4.21,0,0,0,31,394.29a4.21,4.21,0,0,0,1.66-8.21Zm32.9-10.44a4.21,4.21,0,1,0,2.87,4.85A4,4,0,0,0,65.54,375.64Zm-.46,21.28a4,4,0,0,0-2.86-4.86l-14.79-3a4.21,4.21,0,0,0-1.66,8.21l14.79,3A4,4,0,0,0,65.08,396.92Z" transform="translate(41.97 41.84)"/><path class="cls-1" d="M318.06-30.25a12.54,12.54,0,0,0-10.91,10.46l-9.83,62.13a7,7,0,0,1-6,5.85,7.28,7.28,0,0,1-7.26-4L268.86,13.75A14.4,14.4,0,0,0,258.27,5.8a4.16,4.16,0,0,1,1-8.26,22.62,22.62,0,0,1,17,12.5L289.75,37l9.19-58.07a20.86,20.86,0,0,1,18.17-17.41l28.76-3.3a4.16,4.16,0,0,1,4.61,3.66,4.17,4.17,0,0,1-3.66,4.61ZM353.19.06a4.15,4.15,0,0,0-5.69,1.49l-7.71,13.16L329.31,3.63a4.16,4.16,0,0,0-6,5.72l12.15,12.84-8.93,15.26a4.16,4.16,0,0,0,7.18,4.2l7.7-13.16,10.49,11.08a4.16,4.16,0,1,0,6-5.72L345.75,21l8.93-15.26A4.16,4.16,0,0,0,353.19.06Z" transform="translate(41.97 41.84)"/><path class="cls-1" d="M12.89,19.3A20.29,20.29,0,0,0-.55-6.06,20.3,20.3,0,0,0-25.91,7.37l-4.47,14.55A20.29,20.29,0,0,0-16.94,47.28,20.28,20.28,0,0,0,8.41,33.85ZM-1.28,30.86A10.17,10.17,0,0,1-14,37.58,10.17,10.17,0,0,1-20.68,24.9l4.47-14.54A10.17,10.17,0,0,1-3.53,3.64,10.18,10.18,0,0,1,3.19,16.32Zm20.15,38A20.29,20.29,0,0,0-6.49,82.33L-11,96.88A20.29,20.29,0,1,0,27.83,108.8L32.3,94.26A20.29,20.29,0,0,0,18.87,68.9Zm-.74,36.92a10.14,10.14,0,1,1-19.39-6L3.21,85.31a10.14,10.14,0,1,1,19.39,6Zm8.35-81.55a5,5,0,0,1,2.1-6.83L44.07,9.19a5.07,5.07,0,0,1,7.24,6L37.88,58.83a5.07,5.07,0,1,1-9.69-3L38,23.89l-4.69,2.49a5.05,5.05,0,0,1-6.84-2.11Zm-43,39.05L-30,107a5.09,5.09,0,0,1-6.34,3.36A5.09,5.09,0,0,1-39.68,104L-29.86,72l-4.69,2.49a5,5,0,0,1-6.83-2.11,5,5,0,0,1,2.1-6.83l15.47-8.2a5.1,5.1,0,0,1,5.61.56,5.09,5.09,0,0,1,1.63,5.39Z" transform="translate(41.97 41.84)"/><path class="cls-1" d="M55.43,284.52,30.76,224.18a9.36,9.36,0,0,0-12.2-5.13l-2.89,1.17a9.47,9.47,0,0,0-2.38,1.41,9.31,9.31,0,0,0-6.94-2.73l-18.71.65a9.38,9.38,0,0,0-9,9.68l2.3,65.5,37.42-1.31-1.6-45.83L35.2,292.76l20.23-8.23Zm-16.82.11-3.29-8.06L44,273l3.29,8.06-8.67,3.53ZM33,270.79,21,241.65l8.67-3.53,11.91,29.14L33,270.79ZM16.32,227.68A3.08,3.08,0,0,1,18,226l2.89-1.18a3.11,3.11,0,0,1,1.07-.23,3.18,3.18,0,0,1,1.32.24A3.13,3.13,0,0,1,25,226.54l2.37,5.8-8.67,3.53-2.37-5.8a3.09,3.09,0,0,1,0-2.39Zm-6.52.46.22,6.24-9.36.33-.32-9.36,6.23-.22A3.13,3.13,0,0,1,9.8,228.14ZM.88,241l9.36-.33,1.09,31.19L2,272.14Zm-5.14,31.4-9.36.33-1.09-31.19,9.35-.33Zm-7.88-46.56,6.24-.22.32,9.36-9.35.32-.22-6.23A3.12,3.12,0,0,1-12.14,225.79Zm-1.26,53.13,9.35-.33.33,9.36-9.35.33Zm15.92,8.81-.33-9.36,9.36-.32.33,9.35Z" transform="translate(41.97 41.84)"/><path class="cls-1" d="M476.75,254.25a14.85,14.85,0,0,0-14.16-3.95,117,117,0,0,0-51.52,29,29,29,0,0,0-8.4,21.8,28.59,28.59,0,0,0,5.87,16.07l-16,16a3.74,3.74,0,0,0,5.19,5.38l.09-.09,16-16A27.86,27.86,0,0,0,431,328.35a31.39,31.39,0,0,0,22.06-9.51c16.44-16.45,25.72-42.78,27.63-50.55a14.7,14.7,0,0,0-3.94-14Zm-66.61,46.47a21.49,21.49,0,0,1,6.22-16.17c1.6-1.59,3.27-3.08,5-4.54v24.37l-7.44,7.44A21.17,21.17,0,0,1,410.14,300.72Zm37.52,12.93a22.1,22.1,0,0,1-28.48,3.44l8.52-8.52,10.12-10.12h21.54A95.75,95.75,0,0,1,447.66,313.65Zm25.79-47.17A110.58,110.58,0,0,1,463.73,291H445.3l12.31-12.3a3.74,3.74,0,0,0-5.19-5.38l-.1.09-18.69,18.69-4.83,4.83V274.2a113.72,113.72,0,0,1,35.59-16.64,7.44,7.44,0,0,1,7.08,2,7.18,7.18,0,0,1,2,6.94Z" transform="translate(41.97 41.84)"/><g class="cls-2"><path class="cls-3" d="M272.49,337.24c-9.35-12.17-25.76-11.65-48.89,1.43-19-18.6-34.69-23.33-46.87-14s-11.66,25.77,1.43,48.89c-18.61,19-23.34,34.7-14,46.88A21.55,21.55,0,0,0,178.92,429c8.94,1.17,20.35-2.19,34.15-10,11.31,11.09,21.48,17.28,30.42,18.45A21.47,21.47,0,0,0,259.94,433c12.18-9.36,11.68-25.76-1.43-48.89C277.11,365.14,281.85,349.42,272.49,337.24Zm-16.11.62a12.83,12.83,0,0,1,8.88,4.94c6.88,8.95-.73,21.63-11.68,33.23-3.21-5-6.88-10.2-11.12-15.72s-8.34-10.41-12.32-14.8C239.56,340.41,249.06,336.9,256.38,337.86Zm-9.44,44.74c-5.31,4.93-10.84,9.47-15.63,13.17s-10.59,7.83-16.73,11.69c-4.93-5.31-9.46-10.84-13.14-15.61s-7.86-10.62-11.71-16.75c5.3-4.93,10.84-9.47,15.62-13.14s10.6-7.86,16.73-11.72c4.93,5.3,9.47,10.84,13.17,15.63s7.83,10.6,11.69,16.73Zm-64.66-50.67a12.77,12.77,0,0,1,9.86-2.49c7.31.95,15.59,6.8,23.38,14.15-5,3.22-10.2,6.89-15.72,11.13S189.39,363,185,367C177.42,353,173.32,338.8,182.28,331.93Zm-10.87,82.95c-6.88-8.95.73-21.63,11.67-33.23,3.22,5,6.89,10.2,11.13,15.72s8.32,10.42,12.3,14.8c-14,7.6-28.23,11.69-35.1,2.73Zm83,10.87c-9,6.87-21.62-.72-33.22-11.66,5-3.21,10.19-6.9,15.71-11.13s10.4-8.32,14.79-12.32c7.6,14.05,11.7,28.26,2.73,35.14Z" transform="translate(41.97 41.84)"/><circle class="cls-3" cx="260.16" cy="421.82" r="9.14"/></g><path class="cls-1" d="M194.54,30.26A37.88,37.88,0,0,0,156.7-7.58H145.58a13.39,13.39,0,0,0-8.91-12.59v-5.21a4.46,4.46,0,0,0-4.45-4.46,4.46,4.46,0,0,0-4.45,4.46v5.21a13.38,13.38,0,0,0-8.9,12.59V28a4.45,4.45,0,0,0,4.45,4.45h17.8A4.45,4.45,0,0,0,145.58,28V1.32H156.7a28.94,28.94,0,1,1,0,57.87h-20v-8.9h17.81a4.45,4.45,0,1,0,0-8.9H110a4.45,4.45,0,1,0,0,8.9h17.81v8.9H96.61a4.46,4.46,0,0,0,0,8.91h4.45v4.45a4.45,4.45,0,0,0,8.9,0V68.1h44.52v4.45a4.45,4.45,0,1,0,8.9,0v-5a37.89,37.89,0,0,0,31.16-37.24Zm-57.87-6.68h-8.9V-7.58A4.45,4.45,0,0,1,132.22-12a4.45,4.45,0,0,1,4.45,4.45Z" transform="translate(41.97 41.84)"/><circle class="cls-1" cx="265.34" cy="143.32" r="5.03"/><circle class="cls-1" cx="452.16" cy="266.44" r="5.03"/><circle class="cls-1" cx="345.93" cy="321.44" r="5.03"/><circle class="cls-1" cx="154.26" cy="422.9" r="5.03"/><circle class="cls-1" cx="45.61" cy="200.82" r="5.03"/><circle class="cls-1" cx="260.31" cy="47.61" r="5.03"/><circle class="cls-1" cx="166.27" cy="333.9" r="5.03"/><circle class="cls-1" cx="483.26" cy="454.64" r="5.03"/><circle class="cls-1" cx="421.41" cy="119.99" r="5.03"/><circle class="cls-1" cx="113.82" cy="57.73" r="5.03"/><path class="cls-1" d="M733.77,109.57a45.7,45.7,0,1,0,45.69,45.69A45.69,45.69,0,0,0,733.77,109.57Zm38.07,45.69a37.84,37.84,0,0,1-6.32,21L761,171.69a1.88,1.88,0,0,1-.56-1.34v-3.66A11.42,11.42,0,0,0,749,155.26H737.58a3.8,3.8,0,0,1-3.81-3.8v-1.91a1.9,1.9,0,0,1,1.9-1.9,9.52,9.52,0,0,0,9.52-9.52v-3.81a1.9,1.9,0,0,1,1.9-1.9h5.26a9.58,9.58,0,0,0,6.72-2.79l1.44-1.44A38,38,0,0,1,771.84,155.26Zm-76,3.67,12,12A11.31,11.31,0,0,0,716,174.3h10.17a3.82,3.82,0,0,1,3.81,3.81v15A38.14,38.14,0,0,1,695.88,158.93Zm41.7,34.22v-15a11.42,11.42,0,0,0-11.43-11.42H716a3.77,3.77,0,0,1-2.69-1.12l-17-17a38,38,0,0,1,58.23-25.21l-.85.86a1.93,1.93,0,0,1-1.34.55h-5.26a9.51,9.51,0,0,0-9.51,9.52v3.81a1.91,1.91,0,0,1-1.91,1.9,9.52,9.52,0,0,0-9.52,9.52v1.91a11.43,11.43,0,0,0,11.43,11.42H749a3.81,3.81,0,0,1,3.81,3.81v3.66a9.55,9.55,0,0,0,2.78,6.73l5.09,5.09A38,38,0,0,1,737.58,193.15Z" transform="translate(41.97 41.84)"/><g class="cls-2"><path class="cls-3" d="M635.13,249.31A30.86,30.86,0,1,0,666,280.17,30.86,30.86,0,0,0,635.13,249.31Zm0,56.58a25.72,25.72,0,1,1,25.71-25.72A25.72,25.72,0,0,1,635.13,305.89Z" transform="translate(41.97 41.84)"/><path class="cls-3" d="M635.13,264.74a2.58,2.58,0,0,0-2.58,2.57v11.12l-8.66,5.44a2.58,2.58,0,1,0,2.73,4.37l9.87-6.17a2.59,2.59,0,0,0,1.21-2.21V267.31A2.57,2.57,0,0,0,635.13,264.74Z" transform="translate(41.97 41.84)"/></g><path class="cls-1" d="M765,59.2a15.51,15.51,0,1,1,18.19-12.26A15.51,15.51,0,0,1,765,59.2Zm4.45-22.84a7.75,7.75,0,1,0,6.12,9.1A7.76,7.76,0,0,0,769.49,36.36Zm13.19,53.92A23.26,23.26,0,0,0,737,81.38a3.88,3.88,0,0,0,7.61,1.49,15.51,15.51,0,1,1,30.45,5.93,3.88,3.88,0,1,0,7.61,1.48ZM793.8,33.2A15.51,15.51,0,1,1,812,21,15.51,15.51,0,0,1,793.8,33.2Zm4.45-22.83a7.75,7.75,0,1,0,6.13,9.09A7.75,7.75,0,0,0,798.25,10.37Zm13.19,53.92A23.28,23.28,0,0,0,793.06,37a3.88,3.88,0,1,0-1.48,7.61,15.5,15.5,0,0,1,12.25,18.19,3.88,3.88,0,0,0,7.61,1.48Zm-63.3-40a15.51,15.51,0,1,1,18.19-12.25A15.51,15.51,0,0,1,748.14,24.3Zm4.45-22.83a7.75,7.75,0,1,0,6.12,9.09A7.75,7.75,0,0,0,752.59,1.47ZM727.72,48a15.51,15.51,0,0,1,18.19-12.25,3.88,3.88,0,0,0,1.49-7.61,23.29,23.29,0,0,0-27.29,18.38A3.88,3.88,0,1,0,727.72,48Z" transform="translate(41.97 41.84)"/><g class="cls-2"><path class="cls-3" d="M925.19,190l-38.42,3.65a19.3,19.3,0,0,0-17.38,21l5.47,57.63a15.44,15.44,0,0,0,16.83,13.91l42.27-4a19.29,19.29,0,0,0,17.38-21l-5.11-53.79A19.3,19.3,0,0,0,925.19,190Zm13.36,18.12,4,42.26-46.1,4.38L891.34,201l34.58-3.29A11.63,11.63,0,0,1,938.55,208.13Zm-54.82-5.73,5,53.1a15.13,15.13,0,0,0-7.48,2.88L877.07,214A11.62,11.62,0,0,1,883.73,202.4Zm49.5,72.14-42.27,4a7.71,7.71,0,1,1-1.46-15.36l53.79-5.12.37,3.85A11.61,11.61,0,0,1,933.23,274.54Z" transform="translate(41.97 41.84)"/><path class="cls-3" d="M927.78,240.15a12.86,12.86,0,0,0,2.62-9.92,13.25,13.25,0,0,0-14.61-10.95l-5.91.56-.62-6.46,12.93-1.23a3.24,3.24,0,0,0-.62-6.46l-12.92,1.23A6.51,6.51,0,0,0,902.8,214l.92,9.69a3.25,3.25,0,0,0,3.54,2.93l9.14-.87c3.69-.35,7.09,2.09,7.58,5.44a6.5,6.5,0,0,1-5.8,7.43l-9.69.92a3.24,3.24,0,0,0,.61,6.46l9.69-.92A13,13,0,0,0,927.78,240.15Z" transform="translate(41.97 41.84)"/></g><path class="cls-1" d="M976.25,335.19,937.43,316.7a27.47,27.47,0,0,0-27.8-.24l-39.25,18.73-.44.23a19.44,19.44,0,0,0,.44,34l10.83,5.16v25.79a26.35,26.35,0,0,0,18.52,25.15,88.25,88.25,0,0,0,47.17,0,26.36,26.36,0,0,0,18.52-25.15V374.55l10.53-5v43.42a5.26,5.26,0,1,0,10.52,0V349.77C986.51,343.59,981.63,337.88,976.25,335.19Zm-21.36,65.18a15.78,15.78,0,0,1-11,15.07,78,78,0,0,1-41.05,0,15.8,15.8,0,0,1-11.06-15.07v-20.8l17.46,8.32a27.77,27.77,0,0,0,14.24,3.89A26.36,26.36,0,0,0,937,388.13l17.9-8.56Zm16.85-40.47-39.7,19a17.34,17.34,0,0,1-17.84-.24l-38.84-18.47a8.91,8.91,0,0,1-.2-15.57l39.45-18.85a17.4,17.4,0,0,1,17.85.24l38.81,18.49a9.11,9.11,0,0,1,4.68,7.84,9,9,0,0,1-4.21,7.61Z" transform="translate(41.97 41.84)"/><path class="cls-1" d="M538.89,394.81l-44.37-9c-10.2-2.08-16.61-12.94-14.33-24.27l11.63-57.5c2.31-11.33,12.44-18.84,22.65-16.79l44.36,9c10.2,2.08,16.62,12.94,14.33,24.27L561.53,378C559.22,389.35,549.1,396.86,538.89,394.81ZM512.8,295.49c-6.12-1.24-12.2,3.27-13.58,10.07l-11.63,57.49c-1.38,6.81,2.47,13.33,8.59,14.57l44.37,9c6.13,1.23,12.21-3.28,13.59-10.08L565.77,319c1.38-6.81-2.47-13.33-8.6-14.57Zm30.33,40.33-29.58-6c-6.13-1.23-10-7.76-8.6-14.56s7.46-11.31,13.59-10.07l29.57,6c6.13,1.24,10,7.76,8.6,14.56S549.25,337.06,543.13,335.82Zm-26.26-22.41a4.21,4.21,0,0,0-1.66,8.21l29.58,6a4.22,4.22,0,0,0,1.66-8.22Zm-13.21,27.25a4.21,4.21,0,1,0,2.87,4.85A4,4,0,0,0,503.66,340.66Zm14.79,3a4.21,4.21,0,1,0,2.87,4.86A4,4,0,0,0,518.45,343.65Zm14.79,3a4.22,4.22,0,1,0,2.87,4.86A4,4,0,0,0,533.24,346.64Zm-32.9,10.44a4.22,4.22,0,1,0,2.87,4.86A4,4,0,0,0,500.34,357.08Zm14.79,3a4.21,4.21,0,1,0,2.86,4.85A4,4,0,0,0,515.13,360.08ZM548,349.64a4.21,4.21,0,1,0,2.87,4.85A4,4,0,0,0,548,349.64Zm-.46,21.28a4,4,0,0,0-2.86-4.86l-14.79-3a4.21,4.21,0,0,0-1.67,8.21l14.79,3A4,4,0,0,0,547.57,370.92Z" transform="translate(41.97 41.84)"/><path class="cls-1" d="M741.19,357.2a12.53,12.53,0,0,0-10.91,10.46l-9.83,62.12a7,7,0,0,1-6,5.85,7.26,7.26,0,0,1-7.26-4L692,401.2a14.38,14.38,0,0,0-10.59-7.95,4.16,4.16,0,0,1,1-8.26,22.63,22.63,0,0,1,17,12.49l13.44,26.93,9.19-58.06a20.85,20.85,0,0,1,18.17-17.41l28.76-3.3a4.16,4.16,0,1,1,1,8.26Zm35.13,30.31a4.15,4.15,0,0,0-5.69,1.49l-7.71,13.16-10.48-11.08a4.16,4.16,0,0,0-6,5.72l12.15,12.84-8.93,15.26a4.16,4.16,0,1,0,7.18,4.2l7.7-13.16L775,427a4.16,4.16,0,1,0,6-5.71l-12.15-12.85,8.93-15.25a4.16,4.16,0,0,0-1.49-5.69Z" transform="translate(41.97 41.84)"/><path class="cls-1" d="M525.78,93.34A20.3,20.3,0,0,0,487,81.41L482.51,96a20.29,20.29,0,1,0,38.79,11.92ZM511.61,104.9a10.15,10.15,0,1,1-19.4-6l4.47-14.54a10.15,10.15,0,0,1,19.4,6Zm20.15,38a20.29,20.29,0,0,0-25.36,13.43l-4.47,14.55a20.29,20.29,0,1,0,38.79,11.92l4.47-14.54A20.29,20.29,0,0,0,531.76,142.94ZM531,179.86a10.15,10.15,0,0,1-19.4-6l4.48-14.55a10.14,10.14,0,1,1,19.39,6Zm8.35-81.55a5,5,0,0,1,2.1-6.83L557,83.23a5.07,5.07,0,0,1,7.24,6l-13.43,43.68a5.07,5.07,0,1,1-9.69-3l9.82-31.95-4.69,2.49a5.05,5.05,0,0,1-6.84-2.11Zm-43.05,39.05L482.91,181a5.07,5.07,0,1,1-9.7-3L483,146.06l-4.69,2.48a5.05,5.05,0,0,1-4.73-8.93l15.47-8.2a5.07,5.07,0,0,1,7.24,6Z" transform="translate(41.97 41.84)"/><path class="cls-1" d="M667.29,460.74,642.61,400.4a9.37,9.37,0,0,0-12.2-5.14l-2.89,1.18a9.47,9.47,0,0,0-2.38,1.41,9.29,9.29,0,0,0-6.93-2.73l-18.71.65a9.37,9.37,0,0,0-9,9.68l2.29,65.5,37.43-1.31-1.61-45.83L647.05,469l20.24-8.24Zm-16.82.11-3.3-8.06,8.67-3.53,3.3,8.06-8.67,3.53ZM644.81,447l-11.92-29.14,8.67-3.54,11.92,29.15L644.81,447ZM628.18,403.9a3.06,3.06,0,0,1,1.69-1.68l2.9-1.18a3.1,3.1,0,0,1,2.38,0,3.16,3.16,0,0,1,1.69,1.7l2.37,5.81-8.67,3.53-2.38-5.81a3.07,3.07,0,0,1,0-2.38Zm-6.52.46.21,6.24-9.35.33-.33-9.36,6.24-.22A3.13,3.13,0,0,1,621.66,404.36Zm-8.92,12.8,9.35-.32L623.18,448l-9.35.32Zm-5.15,31.41-9.36.33-1.09-31.19,9.36-.33ZM599.71,402l6.24-.22.33,9.35-9.36.33-.22-6.24A3.12,3.12,0,0,1,599.71,402Zm-1.26,53.13,9.36-.33.33,9.36-9.36.33ZM614.37,464l-.32-9.36,9.35-.33.33,9.36Z" transform="translate(41.97 41.84)"/><path class="cls-1" d="M824,222.43a14.83,14.83,0,0,0-14.16-4,117,117,0,0,0-51.52,29,29,29,0,0,0-8.4,21.8,28.59,28.59,0,0,0,5.87,16.07l-16,16a3.74,3.74,0,0,0,5.19,5.38l.09-.09,16-16a27.84,27.84,0,0,0,17.18,5.89A31.39,31.39,0,0,0,800.32,287C816.76,270.57,826,244.24,828,236.47a14.7,14.7,0,0,0-3.94-14ZM757.4,268.9a21.49,21.49,0,0,1,6.22-16.17c1.6-1.59,3.27-3.08,5-4.54v24.37L761.15,280A21.17,21.17,0,0,1,757.4,268.9Zm37.52,12.93a22.1,22.1,0,0,1-28.48,3.44l8.52-8.52,10.12-10.12h21.54A95.75,95.75,0,0,1,794.92,281.83Zm25.79-47.17A110.58,110.58,0,0,1,811,259.15H792.56l12.31-12.3a3.74,3.74,0,1,0-5.2-5.38l-.09.09-18.69,18.69-4.83,4.83v-22.7a113.72,113.72,0,0,1,35.59-16.64,7.87,7.87,0,0,1,1.81-.23,7.47,7.47,0,0,1,5.27,2.21,7.18,7.18,0,0,1,2,6.94Z" transform="translate(41.97 41.84)"/><g class="cls-2"><path class="cls-3" d="M986.5,29.16C977.15,17,960.74,17.5,937.61,30.59c-19-18.6-34.69-23.34-46.87-14s-11.66,25.76,1.43,48.89c-18.6,19-23.34,34.7-14,46.87a21.43,21.43,0,0,0,14.74,8.56c8.94,1.17,20.35-2.18,34.15-10,11.31,11.09,21.48,17.27,30.42,18.44A21.43,21.43,0,0,0,974,124.92c12.18-9.35,11.68-25.76-1.43-48.89C991.12,57.06,995.86,41.33,986.5,29.16Zm-16.11.61a12.81,12.81,0,0,1,8.88,4.94c6.88,9-.73,21.64-11.68,33.23-3.21-5-6.88-10.19-11.12-15.71s-8.34-10.41-12.32-14.8C953.57,32.33,963.07,28.81,970.39,29.77ZM961,74.51c-5.3,4.93-10.84,9.47-15.63,13.17s-10.59,7.84-16.72,11.69c-4.93-5.3-9.47-10.84-13.15-15.6S907.59,73.15,903.74,67c5.3-4.93,10.84-9.47,15.63-13.15S930,46,936.09,42.15C941,47.46,945.56,53,949.26,57.79S957.1,68.38,961,74.51ZM896.29,23.84a12.86,12.86,0,0,1,9.86-2.49c7.31,1,15.59,6.81,23.38,14.16-5,3.22-10.2,6.88-15.72,11.13S903.4,55,899,59C891.43,44.93,887.33,30.72,896.29,23.84Zm-10.87,83c-6.88-9,.74-21.64,11.68-33.23,3.21,5,6.88,10.19,11.12,15.71s8.32,10.42,12.3,14.81c-14,7.6-28.23,11.69-35.1,2.73Zm83,10.87c-9,6.87-21.62-.73-33.22-11.66q7.46-4.82,15.71-11.14c5.51-4.23,10.4-8.32,14.79-12.31,7.6,14,11.7,28.25,2.74,35.13Z" transform="translate(41.97 41.84)"/><circle class="cls-3" cx="974.17" cy="113.74" r="9.14"/></g><path class="cls-1" d="M663.49,116.84a30.52,30.52,0,0,0-38-20.45L617,99a10.77,10.77,0,0,0-9.78-7.65l-1.21-4a3.59,3.59,0,1,0-6.87,2.06l1.21,4a10.77,10.77,0,0,0-4,11.77l8.24,27.48A3.58,3.58,0,0,0,609,135l13.74-4.12a3.59,3.59,0,0,0,2.41-4.47L619,105.83l8.59-2.57A23.31,23.31,0,1,1,641,147.92l-15.46,4.63-2.06-6.87,13.75-4.12a3.59,3.59,0,0,0-2.06-6.87L600.79,145a3.59,3.59,0,0,0,2.06,6.88l13.74-4.12,2.06,6.87-24,7.2a3.58,3.58,0,1,0,2,6.87l3.44-1,1,3.43A3.59,3.59,0,1,0,608,169l-1-3.43,34.35-10.3,1,3.44a3.59,3.59,0,0,0,6.87-2.06l-1.16-3.89a30.53,30.53,0,0,0,15.43-35.95Zm-46.2,8.23-6.87,2.06-7.21-24a3.59,3.59,0,0,1,6.87-2.06Z" transform="translate(41.97 41.84)"/><circle class="cls-1" cx="707.53" cy="83.1" r="5.03"/><circle class="cls-1" cx="858.43" cy="470.21" r="5.03"/><circle class="cls-1" cx="842.4" cy="367.81" r="5.03"/><circle class="cls-1" cx="585.38" cy="490.19" r="5.03"/><circle class="cls-1" cx="566.85" cy="272.25" r="5.03"/><circle class="cls-1" cx="677.1" cy="247.25" r="5.03"/><circle class="cls-1" cx="660.35" cy="382.13" r="5.03"/><circle class="cls-1" cx="965.29" cy="484.56" r="5.03"/><circle class="cls-1" cx="892.19" cy="209.79" r="5.03"/><circle class="cls-1" cx="603.45" cy="93.26" r="5.03"/></svg>