<?xml version="1.0" encoding="utf-8"?><!-- Generator: Adobe Illustrator 17.0.0, SVG Export Plug-In . SVG Version: 6.00 Build 0)  --><!DOCTYPE svg PUBLIC "-//W3C//DTD SVG 1.1//EN" "http://www.w3.org/Graphics/SVG/1.1/DTD/svg11.dtd"><svg xmlns="http://www.w3.org/2000/svg" xmlns:xlink="http://www.w3.org/1999/xlink" viewBox="0 0 50 50" width="250px" height="250px"><rect x="0" fill="none" width="50" height="50"/><path fill="none" stroke="#000000" stroke-width="2" stroke-linecap="round" stroke-linejoin="round" stroke-miterlimit="10" d="M47.619,30.098c0.351-1.563,0.533-3.186,0.533-4.848c0-12.464-10.251-22.572-22.896-22.572c-1.334,0-2.642,0.114-3.918,0.33C19.295,1.738,16.876,1,14.277,1C6.946,1,1,6.862,1,14.088c0,2.419,0.665,4.68,1.827,6.625c-0.303,1.468-0.464,2.984-0.464,4.536c0,12.472,10.248,22.576,22.893,22.576c1.433,0,2.832-0.129,4.196-0.378C31.315,48.438,33.457,49,35.726,49C43.058,49,49,43.142,49,35.912C49,33.823,48.507,31.849,47.619,30.098z M36.998,36.04c-1.06,1.479-2.624,2.65-4.652,3.479c-2.006,0.822-4.415,1.24-7.152,1.24c-3.289,0-6.048-0.569-8.197-1.696c-1.539-0.819-2.81-1.931-3.768-3.3c-0.976-1.38-1.469-2.753-1.469-4.078c0-0.826,0.322-1.545,0.954-2.132c0.629-0.58,1.433-0.873,2.39-0.873c0.786,0,1.465,0.231,2.017,0.69c0.53,0.44,0.979,1.094,1.341,1.934c0.406,0.918,0.848,1.688,1.319,2.301c0.446,0.583,1.093,1.079,1.919,1.461c0.83,0.389,1.948,0.584,3.326,0.584c1.893,0,3.443-0.397,4.609-1.182c1.14-0.767,1.696-1.692,1.696-2.819c0-0.892-0.289-1.593-0.881-2.14c-0.625-0.576-1.451-1.024-2.445-1.329c-1.042-0.319-2.456-0.664-4.203-1.028c-2.376-0.503-4.393-1.097-5.997-1.769c-1.645-0.69-2.967-1.644-3.936-2.837c-0.983-1.215-1.48-2.734-1.48-4.525c0-1.707,0.523-3.245,1.557-4.569c1.02-1.314,2.518-2.342,4.444-3.043c1.897-0.694,4.159-1.042,6.714-1.042c2.046,0,3.845,0.231,5.347,0.694c1.506,0.462,2.781,1.086,3.779,1.857c1.009,0.778,1.754,1.607,2.226,2.47c0.475,0.87,0.716,1.736,0.716,2.573c0,0.807-0.314,1.541-0.939,2.18c-0.625,0.642-1.418,0.965-2.35,0.965c-0.848,0-1.513-0.202-1.974-0.602c-0.428-0.374-0.873-0.958-1.367-1.795c-0.57-1.072-1.261-1.916-2.054-2.507c-0.768-0.576-2.058-0.87-3.823-0.87c-1.641,0-2.975,0.323-3.965,0.965c-0.957,0.617-1.422,1.325-1.422,2.165c0,0.514,0.15,0.943,0.457,1.314c0.329,0.389,0.786,0.734,1.367,1.02c0.603,0.297,1.221,0.536,1.842,0.705c0.636,0.173,1.703,0.433,3.169,0.767c1.853,0.393,3.556,0.829,5.062,1.303c1.524,0.484,2.843,1.075,3.918,1.765c1.093,0.705,1.962,1.608,2.58,2.687c0.618,1.083,0.928,2.422,0.928,3.979C38.599,32.862,38.062,34.557,36.998,36.04z"/></svg>