<?xml version="1.0" encoding="iso-8859-1"?>
<!-- Generator: Adobe Illustrator 24.0.2, SVG Export Plug-In . SVG Version: 6.00 Build 0)  -->
<svg version="1.1" id="Layer_1" xmlns="http://www.w3.org/2000/svg" xmlns:xlink="http://www.w3.org/1999/xlink" x="0px" y="0px"
	 viewBox="0 0 50 50" style="enable-background:new 0 0 50 50;" xml:space="preserve">
<path style="fill:none;stroke:#000000;stroke-width:2;stroke-linecap:round;stroke-linejoin:round;stroke-miterlimit:10;" d="
	M33.619,45H16.381C10.095,45,5,39.905,5,33.619V16.381C5,10.095,10.095,5,16.381,5h17.238C39.905,5,45,10.095,45,16.381v17.238
	C45,39.905,39.905,45,33.619,45z"/>
<path style="fill:none;stroke:#000000;stroke-width:2;stroke-linecap:round;stroke-linejoin:round;stroke-miterlimit:10;" d="M30,32
	H17.005C14.793,32,13,30.207,13,27.995V18h12.995C28.207,18,30,19.793,30,22.005V32z"/>
<path style="fill:none;stroke:#000000;stroke-width:2;stroke-linecap:round;stroke-linejoin:round;stroke-miterlimit:10;" d="
	M36.836,31.272L30,27v-5l6.836-4.272C37.343,17.411,38,17.775,38,18.373v12.254C38,31.225,37.343,31.589,36.836,31.272z"/>
</svg>